<svg id="Text" xmlns="http://www.w3.org/2000/svg" viewBox="0 0 868.2 165.31"><defs><style>.cls-1{fill:#e86ed0;}.cls-2{fill:#edb5f5;}.cls-3{fill:#b1e8ed;}.cls-4{fill:#e6f8f9;}</style></defs><g id="_.nu" data-name=" .nu"><g id="Shadow"><path d="M845.6,147.43a17,17,0,0,1-5.4-.81,10.27,10.27,0,0,1-4.57-3,13,13,0,0,1-2.56-5.24,28.14,28.14,0,0,1-.72-7.2V107h15v22.39c0,3,.06,4.05.24,4.39,0,.09.25.22,1,.22a3.33,3.33,0,0,0,2.23-.69c.61-.54,1.58-1.18,1.58-1.94V107h14v26.59a46.34,46.34,0,0,0,.21,5,27,27,0,0,0,.69,4l.9,3.39H855.78l-.69-2c-.51.43-1,.84-1.59,1.22A15,15,0,0,1,845.6,147.43Z" transform="translate(0 0)"/><path d="M816.35,146V124.92c0-2.91-.27-3.94-.43-4.18s-.55-.44-1.32-.44a4.2,4.2,0,0,0-2.55.73c-.6.5-.7,1.1-1.7,1.81V146h-13V107h11.44l.4,2.14c.31-.22.62-.23.95-.43a14.72,14.72,0,0,1,8-1.93,16.11,16.11,0,0,1,5.29.86,10.36,10.36,0,0,1,4.48,3,12.93,12.93,0,0,1,2.65,5.33,29.12,29.12,0,0,1,.79,7.14V146Z" transform="translate(0 0)"/><path d="M786.48,147.24a8.24,8.24,0,0,1-5.84-2.2,7.79,7.79,0,0,1-2.35-5.8,7.65,7.65,0,0,1,2.38-5.79,8.24,8.24,0,0,1,5.81-2.14,8.48,8.48,0,0,1,6,2.13,8,8,0,0,1-6,13.8Z" transform="translate(0 0)"/></g><g id="Border"><path d="M785.35,143.57a8.19,8.19,0,0,1-5.84-2.19,7.94,7.94,0,0,1,5.82-13.73,8.42,8.42,0,0,1,5.94,2.13,7.69,7.69,0,0,1,2.38,5.8,7.79,7.79,0,0,1-2.35,5.8A8.34,8.34,0,0,1,785.35,143.57Z" transform="translate(0 0)"/><path d="M815.35,143V121.26c0-2.91-.32-3.94-.48-4.19s-.58-.43-1.35-.43a4.09,4.09,0,0,0-2.51.72c-.6.51-.66,1.1-1.66,1.82V143h-13V104h11.34l.39,1.81c.31-.22.63-.4.95-.6a14.76,14.76,0,0,1,8-2,16.44,16.44,0,0,1,5.3.82,10.51,10.51,0,0,1,4.48,3,12.91,12.91,0,0,1,2.69,5.32,28.56,28.56,0,0,1,.85,7.13V143Z" transform="translate(0 0)"/><path d="M844.49,143.77a17,17,0,0,1-5.39-.81,10.14,10.14,0,0,1-4.58-3,12.94,12.94,0,0,1-2.5-5.23,28.55,28.55,0,0,1-.67-7.2V104h14v21.72c0,3,.51,4.06.69,4.4a2,2,0,0,0,1.17.22,2.4,2.4,0,0,0,1.9-.69,3,3,0,0,0,1.24-1.94V104h15v25.93c0,1.68,0,3.36.15,5a33.76,33.76,0,0,0,.67,4.36L867,143H854.68l-.7-2.32a16.89,16.89,0,0,1-1.59,1.06A15,15,0,0,1,844.49,143.77Z" transform="translate(0 0)"/></g><g id="Nyans"><path class="cls-1" d="M844.42,109.9v18.66a12.86,12.86,0,0,0,1,5.78c.63,1.18,1.87,1.77,3.71,1.77a5.8,5.8,0,0,0,4-1.44,9,9,0,0,0,2.4-3.55V109.9H864v22.86a51.9,51.9,0,0,0,.26,5.29,32.34,32.34,0,0,0,.79,4.69h-6.44l-1.51-4.86h-.26a12.18,12.18,0,0,1-4.21,4.14,12,12,0,0,1-6.37,1.64,14.34,14.34,0,0,1-4.46-.65,7.37,7.37,0,0,1-3.29-2.17,10.34,10.34,0,0,1-2-4.07,25.38,25.38,0,0,1-.69-6.44V109.9Z" transform="translate(0 0)"/><path class="cls-1" d="M820.51,142.74V124.09c0-2.67-.39-4.6-1.15-5.78a4.31,4.31,0,0,0-3.91-1.77,6.14,6.14,0,0,0-4.1,1.46,7.88,7.88,0,0,0-2.39,3.51v21.28h-8.54V109.9h6.76l1,4.34h.26a14.19,14.19,0,0,1,4-3.68,11.81,11.81,0,0,1,6.44-1.58,13.27,13.27,0,0,1,4.33.66,7.32,7.32,0,0,1,3.22,2.17,9.89,9.89,0,0,1,2,4.1,26.54,26.54,0,0,1,.66,6.41v20.42Z" transform="translate(0 0)"/><path class="cls-1" d="M782,138.41a4.72,4.72,0,0,1,1.45-3.65,5.37,5.37,0,0,1,3.81-1.34,5.56,5.56,0,0,1,3.94,1.34,4.75,4.75,0,0,1,1.44,3.65,4.87,4.87,0,0,1-1.44,3.68,5.48,5.48,0,0,1-3.94,1.38,5.26,5.26,0,0,1-3.81-1.38A4.82,4.82,0,0,1,782,138.41Z" transform="translate(0 0)"/></g><g id="Main_text" data-name="Main text"><path class="cls-2" d="M842.59,107.07v18.66a13,13,0,0,0,1,5.78c.63,1.18,1.87,1.77,3.71,1.77a5.81,5.81,0,0,0,4-1.45,8.85,8.85,0,0,0,2.4-3.54V107.07h8.54v22.86a51.9,51.9,0,0,0,.26,5.29,32.34,32.34,0,0,0,.79,4.69h-6.44l-1.5-4.86h-.26a12.18,12.18,0,0,1-4.21,4.14,12,12,0,0,1-6.37,1.64,14.44,14.44,0,0,1-4.47-.65,7.34,7.34,0,0,1-3.28-2.17,10.08,10.08,0,0,1-2-4.07,25.38,25.38,0,0,1-.69-6.44V107.07Z" transform="translate(0 0)"/><path class="cls-2" d="M818.68,139.91V121.26c0-2.67-.39-4.6-1.15-5.78a4.31,4.31,0,0,0-3.91-1.78,6.2,6.2,0,0,0-4.11,1.42,7.88,7.88,0,0,0-2.39,3.51v21.28h-8.54V107.07h6.77l1,4.34h.26a14.19,14.19,0,0,1,4-3.68,11.87,11.87,0,0,1,6.43-1.58,13.33,13.33,0,0,1,4.34.66A7.32,7.32,0,0,1,824.6,109a9.89,9.89,0,0,1,2,4.1,26.51,26.51,0,0,1,.66,6.4v20.43Z" transform="translate(0 0)"/><path class="cls-2" d="M780.12,135.58a4.72,4.72,0,0,1,1.45-3.65,5.37,5.37,0,0,1,3.81-1.34,5.56,5.56,0,0,1,3.94,1.34,4.75,4.75,0,0,1,1.44,3.65,4.87,4.87,0,0,1-1.44,3.68,5.48,5.48,0,0,1-3.94,1.38,5.26,5.26,0,0,1-3.81-1.38A4.82,4.82,0,0,1,780.12,135.58Z" transform="translate(0 0)"/></g></g><g id="Bilen"><g id="Shadow-2"><path d="M509.35,164.7c-5.83,0-14.89-.74-27.7-2.26l-10.3-1.37V63h39V86.08a50.93,50.93,0,0,1,8.79-.94c14.15,0,31,6.71,31,38.67,0,15-3,25.32-9.08,31.54S524.51,164.7,509.35,164.7Zm1-37a29.53,29.53,0,0,0,.16-3.26,35.61,35.61,0,0,0-.16-3.72Z" transform="translate(0 0)"/><rect x="546.35" y="87" width="39" height="76"/><rect x="546.35" y="63" width="39" height="30"/><rect x="582.35" y="63" width="40" height="100"/><path d="M655.21,164.7c-12.84,0-22.42-3.18-28.48-9.45s-9.07-16-9.07-29.15,3.21-23.22,9.55-30.21,16.37-10.75,29.44-10.75c12.86,0,22.8,2.93,29.39,8.71,6.78,6,10.31,15,10.31,26.93V121l-2,18h-.11l.72,20.9-4.07.89A167.89,167.89,0,0,1,655.21,164.7Z" transform="translate(0 0)"/><path d="M691.35,163V87h39.94a25.85,25.85,0,0,1,9.15-1.86c11,0,18.69,3.18,23.49,9.7,4.38,6,6.42,15.51,6.42,30V163Z" transform="translate(0 0)"/></g><g id="Border-2"><path d="M500.35,140.7c-5.83,0-14.89-.74-27.7-2.26l-10.3-1.37V39h39V62.08a50.93,50.93,0,0,1,8.79-.94c14.15,0,31,6.71,31,38.67,0,15-3,25.32-9.08,31.54S515.51,140.7,500.35,140.7Zm1-37a29.53,29.53,0,0,0,.16-3.26,35.61,35.61,0,0,0-.16-3.72Z" transform="translate(0 0)"/><rect x="537.35" y="63" width="39" height="76"/><rect x="537.35" y="39" width="39" height="30"/><rect x="573.35" y="39" width="40" height="100"/><path d="M646.21,140.7c-12.84,0-22.42-3.18-28.48-9.45s-9.07-16-9.07-29.15,3.21-23.22,9.55-30.21,16.37-10.75,29.44-10.75c12.86,0,22.8,2.93,29.39,8.71,6.78,6,10.31,15,10.31,26.93V97l-2,18h-.11l.72,20.9-4.07.89A167.89,167.89,0,0,1,646.21,140.7Z" transform="translate(0 0)"/><path d="M682.35,139V63h39.94a25.85,25.85,0,0,1,9.15-1.86c11,0,18.69,3.18,23.49,9.7,4.38,6,6.42,15.51,6.42,30V139Z" transform="translate(0 0)"/></g><g id="Nyans-2"><path class="cls-3" d="M514.14,71.14c-3.32,0-7.79.7-13.79,2.1V49h-29v88.69l5.89.79q18.74,2.22,27.11,2.22,20.43,0,28.16-7.86c5.16-5.24,7.65-14.58,7.65-28C540.16,82.37,531.43,71.14,514.14,71.14ZM504.71,117a19.93,19.93,0,0,1-4.36-.39V95.77l4.36-.92a4.89,4.89,0,0,1,4.53,2.23c.87,1.49,1.27,4.28,1.27,8.38C510.51,113.15,508.55,117,504.71,117Z" transform="translate(0 0)"/><rect class="cls-3" x="546.35" y="73" width="29" height="66"/><rect class="cls-3" x="546.35" y="49" width="29" height="20"/><rect class="cls-3" x="582.35" y="49" width="30" height="90"/><path class="cls-3" d="M677.66,78.61q-8.52-7.47-26-7.47t-25.74,9.11q-8.25,9.1-8.25,26.85t7.68,25.68q7.67,7.92,24.89,7.92a161.54,161.54,0,0,0,34.65-3.8l-.65-19-5.11.39c-8.74.53-17.47,1-26.2,1-3.85,0-5.81-1.34-5.9-4.34h37.86l1.31-13.22C686.17,91.48,683.35,83.59,677.66,78.61ZM646.87,99c.09-3,.48-4.56,1.18-5.61a4.29,4.29,0,0,1,3.8-1.69,4.49,4.49,0,0,1,3.86,1.75c.75,1,1.12,2.55,1.12,5.55Z" transform="translate(0 0)"/><path class="cls-3" d="M754.9,78.81c-3.76-5.11-10-7.67-19.46-7.67-4.11,0-9.09,1.71-14.09,5.11V73h-30v66h30V97.34l5.46-.92c3.14,0,4.54,3.8,4.54,11.4V139h29V105.86C760.35,92.93,758.65,83.91,754.9,78.81Z" transform="translate(0 0)"/></g><g id="Main_text-2" data-name="Main text-2"><path class="cls-4" d="M510.14,66.14c-3.32,0-7.79.7-13.79,2.1V44h-29v88.69l5.89.79q18.74,2.22,27.11,2.22,20.43,0,28.16-7.86c5.16-5.24,7.65-14.58,7.65-28C536.16,77.37,527.43,66.14,510.14,66.14ZM500.71,112a19.93,19.93,0,0,1-4.36-.39V90.77l4.36-.92a4.89,4.89,0,0,1,4.53,2.23c.87,1.49,1.27,4.28,1.27,8.38C506.51,108.15,504.55,112,500.71,112Z" transform="translate(0 0)"/><rect class="cls-4" x="542.35" y="68" width="29" height="66"/><rect class="cls-4" x="542.35" y="44" width="29" height="20"/><rect class="cls-4" x="578.35" y="44" width="30" height="90"/><path class="cls-4" d="M673.66,73.61q-8.52-7.47-26-7.47t-25.74,9.11q-8.25,9.1-8.25,26.85t7.68,25.68q7.67,7.92,24.89,7.92a161.54,161.54,0,0,0,34.65-3.8l-.65-19-5.11.39c-8.74.53-17.47,1-26.2,1-3.85,0-5.81-1.34-5.9-4.34h37.86l1.31-13.22C682.17,86.48,679.35,78.59,673.66,73.61ZM642.87,94c.09-3,.48-4.56,1.18-5.61a4.29,4.29,0,0,1,3.8-1.69,4.49,4.49,0,0,1,3.86,1.75c.75,1,1.12,2.55,1.12,5.55Z" transform="translate(0 0)"/><path class="cls-4" d="M750.9,73.81c-3.76-5.11-10-7.67-19.46-7.67-4.11,0-9.09,1.71-14.09,5.11V68h-30v66h30V92.34l5.46-.92c3.14,0,4.54,3.8,4.54,11.4V134h29V100.86C756.35,87.93,754.65,78.91,750.9,73.81Z" transform="translate(0 0)"/></g></g><g id="Godis"><g id="Shadow-3"><path d="M67.35,83l.22,37.27c-3-.83-3.82-2.42-4.15-3.06-1.24-2.45-2.71-7.54-2.71-17.94,0-8.93.36-15.08,1.09-18.29a6.11,6.11,0,0,1,.84-2.27,14.85,14.85,0,0,1,3.78-1.61c.78-.23,3.58-.77,12.59-.77,7,0,19.1.77,35.89,2.29l5.45.5V38.55L109.66,36c-4.64-1-10.86-2-18.5-3a162.18,162.18,0,0,0-21.11-1.56c-21.63,0-37.4,5.14-46.89,15.29S9,73.73,9,98.19c0,11.47.85,21.11,2.52,28.67a51.76,51.76,0,0,0,9.57,20.85A39.14,39.14,0,0,0,40.7,160.9c7.75,2.46,17.15,3.7,28,3.7s27.65-1.81,48.51-5.22l4.19-.69V83Z" transform="translate(0 0)"/><path d="M210.43,66.62c-8.82-8.28-22-12.48-39.11-12.48s-30.29,4.2-39.1,12.48-13.41,21.77-13.41,39.86,4.54,31.52,13.42,39.78,22,12.38,39.09,12.38,30.29-4.16,39.09-12.38,13.43-21.69,13.43-39.78S219.35,75,210.43,66.62ZM172.54,116c-.12.24-.21.44-1.22.44s-1.1-.2-1.22-.44c-.25-.5-1.07-2.69-1.07-9.6s.82-9.09,1.07-9.6c.12-.24.22-.44,1.22-.44s1.1.2,1.22.44c.26.51,1.08,2.69,1.08,9.6S172.8,115.49,172.54,116Z" transform="translate(0 0)"/><path d="M273.35,24V54.83L264,54h-.18c-36.69,0-44.39,28.53-44.39,52.41,0,16.6,2.81,29.06,8.61,38,6.17,9.47,16.8,14.28,31.58,14.28a34.52,34.52,0,0,0,14.4-3.37l.07.73h49.27V24Zm0,92.35-.85.08c-1.32,0-1.47-.41-1.63-.81-.58-1.41-1.27-4.15-1.27-9.23s.64-8,1.17-9.32c.12-.32.27-.72,1.77-.72h.81Z" transform="translate(0 0)"/><rect x="323.35" y="56" width="49" height="100"/><rect x="322.35" y="24" width="51" height="37"/><path d="M417.26,165.31a193.29,193.29,0,0,1-21.91-1.19A106.44,106.44,0,0,1,380,161.57l-8.41-2.26,1.21-36.38,7.8,1.07a19.27,19.27,0,0,1-1.68-1.58c-5.13-5.27-7.73-13.3-7.73-23.86,0-13.77,4.21-23.71,12.54-29.54,7.76-5.45,18.64-8.21,32.32-8.21s25.89,1.25,35.84,3.7l8.88,2L458.83,104l-6.1-.69c.41.37.81.74,1.2,1.13,5.28,5.36,7.84,13.75,7.84,25.67s-3.93,21.12-11.69,26.95C442.66,162.6,431.92,165.31,417.26,165.31Z" transform="translate(0 0)"/></g><g id="Border-3"><path d="M58.35,59l.22,37.27c-3-.83-3.82-2.42-4.15-3.06-1.24-2.45-2.71-7.54-2.71-17.94,0-8.93.36-15.08,1.09-18.29a6.11,6.11,0,0,1,.84-2.27,14.85,14.85,0,0,1,3.78-1.61c.78-.23,3.58-.77,12.59-.77,7,0,19.1.77,35.89,2.29l5.45.5V14.55L100.66,12C96,11,89.8,10,82.16,9A162.18,162.18,0,0,0,61.05,7.44c-21.63,0-37.4,5.14-46.89,15.29S0,49.73,0,74.19C0,85.66.85,95.3,2.52,102.86a51.76,51.76,0,0,0,9.57,20.85A39.14,39.14,0,0,0,31.7,136.9c7.75,2.46,17.15,3.7,28,3.7s27.65-1.81,48.51-5.22l4.19-.69V59Z" transform="translate(0 0)"/><path d="M201.43,42.62c-8.82-8.28-22-12.48-39.11-12.48s-30.29,4.2-39.1,12.48-13.41,21.77-13.41,39.86,4.54,31.52,13.42,39.78,22,12.38,39.09,12.38,30.29-4.16,39.09-12.38,13.43-21.69,13.43-39.78S210.35,51,201.43,42.62ZM163.54,92c-.12.24-.21.44-1.22.44s-1.1-.2-1.22-.44c-.25-.5-1.07-2.69-1.07-9.6s.82-9.09,1.07-9.6c.12-.24.22-.44,1.22-.44s1.1.2,1.22.44c.26.51,1.08,2.69,1.08,9.6S163.8,91.49,163.54,92Z" transform="translate(0 0)"/><path d="M264.35,0V30.83L255,30h-.18c-36.69,0-44.39,28.53-44.39,52.41,0,16.6,2.81,29.06,8.61,38,6.17,9.47,16.8,14.28,31.58,14.28a34.52,34.52,0,0,0,14.4-3.37l.07.73h49.27V0Zm0,92.35-.85.08c-1.32,0-1.47-.41-1.63-.81-.58-1.41-1.27-4.15-1.27-9.23s.64-8,1.17-9.32c.12-.32.27-.72,1.77-.72h.81Z" transform="translate(0 0)"/><rect x="314.35" y="32" width="49" height="100"/><rect x="313.35" width="51" height="37"/><path d="M408.26,141.31a193.29,193.29,0,0,1-21.91-1.19A106.44,106.44,0,0,1,371,137.57l-8.41-2.26,1.21-36.38,7.8,1.07a19.27,19.27,0,0,1-1.68-1.58c-5.13-5.27-7.73-13.3-7.73-23.86,0-13.77,4.21-23.71,12.54-29.54,7.76-5.45,18.64-8.21,32.32-8.21s25.89,1.25,35.84,3.7l8.88,2L449.83,80l-6.1-.69c.41.37.81.74,1.2,1.13,5.28,5.36,7.84,13.75,7.84,25.67s-3.93,21.12-11.69,27C433.66,138.6,422.92,141.31,408.26,141.31Z" transform="translate(0 0)"/></g><g id="Nyans-3"><path class="cls-1" d="M67.55,98h5.8v8.61l-6.28.18c-6.53,0-11-2.11-13.1-6.32s-3.26-10.94-3.26-20.2.38-15.72,1.21-19.4c.59-2.6,1.53-4.36,2.84-5.25A19,19,0,0,1,60,53.31c2.19-.65,6.83-1,14-1s19.34.77,36.34,2.32V23.5l-6.72-1.6C99.11,20.9,93.09,20,85.5,19A159.09,159.09,0,0,0,65,17.45q-30.44,0-43.24,13.7T9,79.15q0,16.74,2.41,27.59A46.49,46.49,0,0,0,20,125.6,34.11,34.11,0,0,0,37.2,137.08q11,3.46,26.44,3.47c10.32,0,26.7-1.72,47.7-5.16V69h-44Z" transform="translate(0 0)"/><path class="cls-1" d="M166.35,40.14q-23.85,0-35.68,11.12T118.84,87.48q0,25.09,11.83,36.13t35.68,11q23.85,0,35.68-11t11.84-36.13q0-25.1-11.84-36.22T166.35,40.14Zm5.7,59.09c-1.07,2.13-3,3.19-5.7,3.2s-4.62-1.07-5.69-3.2-1.6-6.08-1.6-11.84.53-9.7,1.6-11.83a5.86,5.86,0,0,1,5.69-3.21c2.69,0,4.63,1.07,5.7,3.21s1.6,6.08,1.6,11.83-.57,9.7-1.63,11.84Z" transform="translate(0 0)"/><path class="cls-1" d="M273.35,41.21l-14.54-1.07q-39.33,0-39.39,47.34c0,15.42,2.57,27.14,7.8,35.15s14.33,12,27.39,12c5.93,0,12.15-2.24,18.67-6.39l.35,3.75h39.72V10h-40Zm0,60.68-5.64.54c-3.21,0-5.4-1.31-6.47-3.92s-1.63-6.31-1.63-11.12.48-8.51,1.49-11.12,3.23-3.92,6.44-3.92a56.76,56.76,0,0,1,5.81.54Z" transform="translate(0 0)"/><rect class="cls-1" x="323.35" y="42" width="39" height="90"/><rect class="cls-1" x="322.35" y="10" width="41" height="27"/><path class="cls-1" d="M425,80.9q-14-1.52-14-2.59c0-.94,2.67-1.42,8-1.42s15.36.83,30.07,2.49l1.43-27.94-4.81-1.07q-14.42-3.55-34.7-3.56-19.05,0-29.45,7.3T371.12,79.56q0,13.88,6.31,20.38t20.38,8.36q14.06,1.88,14.06,2.76,0,1.6-8.63,1.6t-30.7-3l-.89,26.87,4.63,1.24a104.46,104.46,0,0,0,14.59,2.41,188.05,188.05,0,0,0,21.35,1.15q20.11,0,29.81-7.29t9.7-23q0-15.66-6.4-22.16T425,80.9Z" transform="translate(0 0)"/></g><g id="Main_text-3" data-name="Main text-3"><path class="cls-2" d="M63.55,93h5.8v8.61l-6.28.18c-6.53,0-11-2.11-13.1-6.32s-3.26-10.94-3.26-20.2.38-15.72,1.21-19.4c.59-2.6,1.53-4.36,2.84-5.25A19,19,0,0,1,56,48.31c2.19-.65,6.83-1,14-1s19.34.77,36.34,2.32V18.5l-6.72-1.6C95.11,15.9,89.09,15,81.5,14A159.09,159.09,0,0,0,61,12.45q-30.43,0-43.24,13.7T5,74.15Q5,90.89,7.4,101.74A46.49,46.49,0,0,0,16,120.6,34.11,34.11,0,0,0,33.2,132.08q11,3.46,26.44,3.47c10.32,0,26.7-1.72,47.7-5.16V64h-44Z" transform="translate(0 0)"/><path class="cls-2" d="M162.35,35.14q-23.85,0-35.68,11.12T114.84,82.48q0,25.09,11.83,36.13t35.68,11q23.85,0,35.68-11t11.84-36.13q0-25.1-11.84-36.22T162.35,35.14Zm5.7,59.09c-1.07,2.13-3,3.19-5.7,3.2s-4.62-1.07-5.69-3.2-1.6-6.08-1.6-11.84.53-9.7,1.6-11.83a5.86,5.86,0,0,1,5.69-3.21c2.69,0,4.63,1.07,5.7,3.21s1.6,6.08,1.6,11.83-.57,9.7-1.63,11.84Z" transform="translate(0 0)"/><path class="cls-2" d="M269.35,36.21l-14.54-1.07q-39.33,0-39.39,47.34c0,15.42,2.57,27.14,7.8,35.15s14.33,12,27.39,12c5.93,0,12.15-2.24,18.67-6.39l.35,3.75h39.72V5h-40Zm0,60.68-5.64.54c-3.21,0-5.4-1.31-6.47-3.92s-1.63-6.31-1.63-11.12.48-8.51,1.49-11.12,3.23-3.92,6.44-3.92a56.76,56.76,0,0,1,5.81.54Z" transform="translate(0 0)"/><rect class="cls-2" x="319.35" y="37" width="39" height="90"/><rect class="cls-2" x="318.35" y="5" width="41" height="27"/><path class="cls-2" d="M421,75.9q-14-1.52-14-2.59c0-.94,2.67-1.42,8-1.42s15.36.83,30.07,2.49l1.43-27.94-4.81-1.07q-14.42-3.55-34.7-3.56-19.05,0-29.45,7.3T367.12,74.56q0,13.88,6.31,20.38t20.38,8.36q14.06,1.88,14.06,2.76,0,1.6-8.63,1.6t-30.7-3l-.89,26.87,4.63,1.24a104.46,104.46,0,0,0,14.59,2.41,188.05,188.05,0,0,0,21.35,1.15q20.11,0,29.81-7.29t9.7-23q0-15.66-6.4-22.16T421,75.9Z" transform="translate(0 0)"/></g></g></svg>